<svg width="256" height="256" viewBox="0 0 256 256" fill="none" xmlns="http://www.w3.org/2000/svg">
<g clip-path="url(#clip0_1014_43323)">
<path d="M15.4035 11.0419L157.056 0.579172C174.456 -0.913308 178.926 0.0927716 189.868 8.04669L235.085 39.9008C242.542 45.3792 245.025 46.8716 245.025 52.8364V227.539C245.025 238.488 241.05 244.964 227.131 245.953L62.6355 255.916C52.1907 256.41 47.2166 254.918 41.7459 247.947L8.448 204.647C2.47552 196.678 0 190.713 0 183.739V28.4499C0 19.4976 3.97568 12.0326 15.4035 11.0419Z" fill="white"/>
<path fill-rule="evenodd" clip-rule="evenodd" d="M157.056 0.581732L15.4035 11.0445C3.97568 12.0326 0 19.5001 0 28.4499V183.739C0 190.71 2.47552 196.675 8.448 204.647L41.7459 247.944C47.2166 254.915 52.1907 256.41 62.6355 255.914L227.133 245.955C241.042 244.964 245.028 238.488 245.028 227.541V52.839C245.028 47.1814 242.793 45.5507 236.214 40.7225L189.868 8.04669C178.929 0.0927716 174.456 -0.913308 157.056 0.579172V0.581732ZM66.3552 49.9795C52.9229 50.8832 49.8765 51.088 42.2477 44.8851L22.8531 29.4585C20.8819 27.4617 21.8726 24.9709 26.839 24.4742L163.013 14.5235C174.449 13.5251 180.403 17.511 184.876 20.9926L208.23 37.9142C209.229 38.4185 211.712 41.3958 208.724 41.3958L68.096 49.8617L66.3552 49.9795ZM50.6957 226.049V77.7401C50.6957 71.2633 52.6848 68.2758 58.6394 67.7741L220.16 58.3174C225.638 57.8233 228.114 61.3049 228.114 67.7715V215.092C228.114 221.569 227.116 227.047 218.173 227.541L63.6083 236.501C54.6662 236.995 50.6982 234.018 50.6982 226.049H50.6957Z" fill="url(#paint0_linear_1014_43323)"/>
<path d="M128.31 102.539C131.767 98.9994 137.44 98.9325 140.98 102.389L181.62 142.069C183.384 143.791 184.361 146.165 184.32 148.629C184.279 151.094 183.222 153.432 181.403 155.094L140.763 192.214C137.109 195.551 131.442 195.295 128.105 191.642C124.768 187.988 125.024 182.321 128.678 178.984L152.265 157.439H98.5601C93.6117 157.439 89.6001 153.428 89.6001 148.479C89.6001 143.531 93.6117 139.519 98.5601 139.519H153.358L128.46 115.209C124.92 111.752 124.853 106.08 128.31 102.539Z" fill="#622DCD"/>
</g>
<defs>
<linearGradient id="paint0_linear_1014_43323" x1="6.4" y1="20.4801" x2="245.76" y2="243.2" gradientUnits="userSpaceOnUse">
<stop stop-color="#A885EE"/>
<stop offset="0.418282" stop-color="#8250E7"/>
<stop offset="1" stop-color="#4C239F"/>
</linearGradient>
<clipPath id="clip0_1014_43323">
<rect width="256" height="256" fill="white"/>
</clipPath>
</defs>
</svg>
